<svg width="50" height="50" viewBox="0 0 50 50" fill="none" xmlns="http://www.w3.org/2000/svg">
<rect width="50" height="50" rx="25" fill="white"/>
<path fill-rule="evenodd" clip-rule="evenodd" d="M21.2895 16.054C22.2493 16.0098 22.5553 16 25 16C27.4447 16 27.7507 16.0106 28.7096 16.054C29.6685 16.0974 30.3231 16.2504 30.8958 16.4721C31.4955 16.6987 32.0396 17.053 32.4896 17.5112C32.9478 17.9604 33.3013 18.5036 33.5271 19.1042C33.7496 19.6769 33.9018 20.3315 33.946 21.2887C33.9902 22.2501 34 22.5561 34 25C34 27.4447 33.9894 27.7507 33.946 28.7105C33.9026 29.6677 33.7496 30.3223 33.5271 30.895C33.3013 31.4956 32.9472 32.0398 32.4896 32.4896C32.0396 32.9478 31.4955 33.3013 30.8958 33.5271C30.3231 33.7496 29.6685 33.9018 28.7113 33.946C27.7507 33.9902 27.4447 34 25 34C22.5553 34 22.2493 33.9894 21.2895 33.946C20.3323 33.9026 19.6777 33.7496 19.105 33.5271C18.5044 33.3012 17.9602 32.9472 17.5104 32.4896C17.0525 32.0402 16.6982 31.4963 16.4721 30.8958C16.2504 30.3231 16.0982 29.6685 16.054 28.7113C16.0098 27.7499 16 27.4439 16 25C16 22.5553 16.0106 22.2493 16.054 21.2904C16.0974 20.3315 16.2504 19.6769 16.4721 19.1042C16.6985 18.5037 17.0531 17.9598 17.5112 17.5104C17.9604 17.0526 18.504 16.6983 19.1042 16.4721C19.6769 16.2504 20.3315 16.0982 21.2887 16.054H21.2895ZM28.6368 17.674C27.6877 17.6306 27.403 17.6216 25 17.6216C22.597 17.6216 22.3123 17.6306 21.3632 17.674C20.4853 17.7141 20.0091 17.8605 19.6916 17.9841C19.2719 18.1477 18.9716 18.3416 18.6566 18.6566C18.358 18.9471 18.1282 19.3008 17.9841 19.6916C17.8605 20.0091 17.7141 20.4853 17.674 21.3632C17.6306 22.3123 17.6216 22.597 17.6216 25C17.6216 27.403 17.6306 27.6877 17.674 28.6368C17.7141 29.5147 17.8605 29.9909 17.9841 30.3084C18.1281 30.6986 18.358 31.0529 18.6566 31.3434C18.9471 31.642 19.3014 31.8719 19.6916 32.0159C20.0091 32.1395 20.4853 32.2859 21.3632 32.326C22.3123 32.3694 22.5962 32.3784 25 32.3784C27.4038 32.3784 27.6877 32.3694 28.6368 32.326C29.5147 32.2859 29.9909 32.1395 30.3084 32.0159C30.7281 31.8523 31.0284 31.6584 31.3434 31.3434C31.642 31.0529 31.8719 30.6986 32.0159 30.3084C32.1395 29.9909 32.2859 29.5147 32.326 28.6368C32.3694 27.6877 32.3784 27.403 32.3784 25C32.3784 22.597 32.3694 22.3123 32.326 21.3632C32.2859 20.4853 32.1395 20.0091 32.0159 19.6916C31.8523 19.2719 31.6584 18.9716 31.3434 18.6566C31.0528 18.3581 30.6992 18.1283 30.3084 17.9841C29.9909 17.8605 29.5147 17.7141 28.6368 17.674ZM23.8505 27.7745C24.4924 28.0417 25.2073 28.0778 25.8729 27.8765C26.5386 27.6752 27.1137 27.2491 27.5 26.6709C27.8864 26.0927 28.06 25.3983 27.9913 24.7064C27.9226 24.0144 27.6157 23.3677 27.1232 22.8768C26.8092 22.563 26.4295 22.3228 26.0115 22.1733C25.5936 22.0238 25.1476 21.9689 24.7059 22.0125C24.2641 22.0561 23.8375 22.1971 23.4567 22.4253C23.076 22.6535 22.7506 22.9633 22.504 23.3324C22.2573 23.7015 22.0956 24.1207 22.0304 24.5598C21.9652 24.9989 21.9982 25.447 22.127 25.8718C22.2558 26.2966 22.4771 26.6876 22.7751 27.0166C23.0731 27.3456 23.4404 27.6044 23.8505 27.7745ZM21.7289 21.7289C22.1585 21.2993 22.6684 20.9586 23.2297 20.7261C23.791 20.4936 24.3925 20.374 25 20.374C25.6075 20.374 26.209 20.4936 26.7703 20.7261C27.3316 20.9586 27.8415 21.2993 28.2711 21.7289C28.7007 22.1585 29.0414 22.6684 29.2739 23.2297C29.5064 23.791 29.626 24.3925 29.626 25C29.626 25.6075 29.5064 26.209 29.2739 26.7703C29.0414 27.3316 28.7007 27.8415 28.2711 28.2711C27.4035 29.1386 26.2269 29.626 25 29.626C23.7731 29.626 22.5965 29.1386 21.7289 28.2711C20.8614 27.4035 20.374 26.2269 20.374 25C20.374 23.7731 20.8614 22.5965 21.7289 21.7289ZM30.652 21.0629C30.7584 20.9625 30.8437 20.8417 30.9026 20.7078C30.9616 20.5739 30.993 20.4294 30.9952 20.2831C30.9973 20.1368 30.97 19.9915 30.915 19.8559C30.86 19.7203 30.7784 19.5971 30.6749 19.4937C30.5714 19.3902 30.4482 19.3085 30.3126 19.2535C30.177 19.1985 30.0317 19.1713 29.8854 19.1734C29.7391 19.1755 29.5947 19.207 29.4607 19.2659C29.3268 19.3249 29.2061 19.4101 29.1056 19.5165C28.9103 19.7236 28.8034 19.9986 28.8076 20.2831C28.8117 20.5677 28.9266 20.8394 29.1279 21.0407C29.3291 21.2419 29.6008 21.3568 29.8854 21.361C30.17 21.3651 30.445 21.2582 30.652 21.0629Z" fill="#111111"/>
</svg>
