<svg width="50" height="50" viewBox="0 0 50 50" fill="none" xmlns="http://www.w3.org/2000/svg">
<rect width="50" height="50" rx="25" fill="white"/>
<path d="M36.4861 19.5186C36.3504 19.0344 36.086 18.5961 35.7211 18.2502C35.3458 17.8936 34.8859 17.6386 34.3847 17.5091C32.5091 17.0147 24.9944 17.0147 24.9944 17.0147C21.8616 16.9791 18.7296 17.1358 15.616 17.4841C15.1148 17.6232 14.6558 17.8839 14.2797 18.2432C13.9102 18.5988 13.6425 19.0372 13.5027 19.5176C13.1668 21.3271 13.0036 23.1644 13.0153 25.0048C13.0033 26.8435 13.1661 28.6802 13.5027 30.492C13.6395 30.9704 13.9062 31.4068 14.2767 31.7594C14.6472 32.112 15.1087 32.3667 15.616 32.5015C17.5167 32.9949 24.9944 32.9949 24.9944 32.9949C28.1312 33.0306 31.2672 32.8738 34.3847 32.5255C34.8859 32.396 35.3458 32.1409 35.7211 31.7844C36.0859 31.4385 36.35 31.0001 36.4851 30.516C36.8298 28.7072 36.9974 26.8691 36.9855 25.0278C37.0114 23.1787 36.844 21.3319 36.4861 19.5176V19.5186ZM22.6054 28.4245V21.586L28.8576 25.0058L22.6054 28.4245Z" fill="#111111"/>
</svg>
